<svg xmlns="http://www.w3.org/2000/svg" viewBox="0 0 1200 1500" fill="none">
  <title>Settle black-and-white mark comparison board</title>
  <style>text{font-family:Arial,Helvetica,sans-serif;fill:#111} .label{font-size:18px;font-weight:700;letter-spacing:1px}.small{font-size:12px;fill:#555}.mark{color:#111}.inverse{color:#fff}</style>
  <rect width="1200" height="1500" fill="#f4f4f1"/>
  <text x="56" y="58" class="label">SETTLE / MARK EXPLORATION</text><text x="56" y="82" class="small">Convergent Ledger · neutral monochrome comparison · 24×24 construction grid</text>
  <g transform="translate(56 112)">
    <rect width="1088" height="210" fill="#fff" stroke="#d5d5d0"/><rect x="570" width="518" height="210" fill="#111"/>
    <text x="22" y="28" class="label">A · AXIAL CONVERGENCE</text><text x="592" y="28" class="label inverse">BLACK / WHITE</text>
    <g class="mark" transform="translate(40 55) scale(6)"><path fill="currentColor" d="M3 5h4v5h5v4H7v5H3zM9 3h4v7h5v4h-5v7H9v-7h5v-4H9zM18 3h3v18h-3z"/></g>
    <g class="inverse" transform="translate(610 55) scale(6)"><path fill="currentColor" d="M3 5h4v5h5v4H7v5H3zM9 3h4v7h5v4h-5v7H9v-7h5v-4H9zM18 3h3v18h-3z"/></g>
    <text x="250" y="130" class="label">A</text><text x="250" y="155" class="small">mark + Settle</text><text x="250" y="178" class="label">Settle</text>
  </g>
  <g transform="translate(56 342)"><rect width="1088" height="210" fill="#fff" stroke="#d5d5d0"/><rect x="570" width="518" height="210" fill="#111"/><text x="22" y="28" class="label">B · TERMINAL REGISTER</text><text x="592" y="28" class="label inverse">BLACK / WHITE</text><g class="mark" transform="translate(40 55) scale(6)"><path fill="currentColor" d="M3 4h3v5h6v3H6v5h6v3H3zM9 7h5v3h5v4h-5v3H9v-3h5v-4H9zM18 3h3v18h-3z"/></g><g class="inverse" transform="translate(610 55) scale(6)"><path fill="currentColor" d="M3 4h3v5h6v3H6v5h6v3H3zM9 7h5v3h5v4h-5v3H9v-3h5v-4H9zM18 3h3v18h-3z"/></g><text x="250" y="130" class="label">B</text><text x="250" y="155" class="small">mark + Settle</text><text x="250" y="178" class="label">Settle</text></g>
  <g transform="translate(56 572)"><rect width="1088" height="210" fill="#fff" stroke="#d5d5d0"/><rect x="570" width="518" height="210" fill="#111"/><text x="22" y="28" class="label">C · SETTLEMENT NOTCH</text><text x="592" y="28" class="label inverse">BLACK / WHITE</text><g class="mark" transform="translate(40 55) scale(6)"><path fill="currentColor" d="M3 3h5v7h3v4H8v7H3zM21 3h-5v7h-3v4h3v7h5z"/><path fill="#fff" d="M8 10h8v4H8z"/></g><g class="inverse" transform="translate(610 55) scale(6)"><path fill="currentColor" d="M3 3h5v7h3v4H8v7H3zM21 3h-5v7h-3v4h3v7h5z"/><path fill="#111" d="M8 10h8v4H8z"/></g><text x="250" y="130" class="label">C</text><text x="250" y="155" class="small">mark + Settle</text><text x="250" y="178" class="label">Settle</text></g>
  <g transform="translate(56 802)"><rect width="1088" height="210" fill="#fff" stroke="#d5d5d0"/><rect x="570" width="518" height="210" fill="#111"/><text x="22" y="28" class="label">D · BALANCED CONVERGENCE</text><text x="592" y="28" class="label inverse">BLACK / WHITE</text><g class="mark" transform="translate(40 55) scale(6)"><path fill="currentColor" d="M3 4h4v6h6v4H7v6H3zM8 7h4v3h5v4h-5v3H8v-3h5v-4H8zM17 3h4v18h-4z"/></g><g class="inverse" transform="translate(610 55) scale(6)"><path fill="currentColor" d="M3 4h4v6h6v4H7v6H3zM8 7h4v3h5v4h-5v3H8v-3h5v-4H8zM17 3h4v18h-4z"/></g><text x="250" y="130" class="label">D</text><text x="250" y="155" class="small">mark + Settle</text><text x="250" y="178" class="label">Settle</text></g>
  <g transform="translate(56 1032)"><rect width="1088" height="210" fill="#fff" stroke="#d5d5d0"/><rect x="570" width="518" height="210" fill="#111"/><text x="22" y="28" class="label">E · RESOLUTION FRAME</text><text x="592" y="28" class="label inverse">BLACK / WHITE</text><g class="mark" transform="translate(40 55) scale(6)"><path fill="currentColor" d="M3 3h4v5h10v4H7v4h10v5H3v-4h10v-4H3zM17 3h4v18h-4v-5h-3v-4h3z"/></g><g class="inverse" transform="translate(610 55) scale(6)"><path fill="currentColor" d="M3 3h4v5h10v4H7v4h10v5H3v-4h10v-4H3zM17 3h4v18h-4v-5h-3v-4h3z"/></g><text x="250" y="130" class="label">E</text><text x="250" y="155" class="small">mark + Settle</text><text x="250" y="178" class="label">Settle</text></g>
  <g transform="translate(56 1262)"><rect width="1088" height="190" fill="#fff" stroke="#d5d5d0"/><rect x="570" width="518" height="190" fill="#111"/><text x="22" y="28" class="label">F · LEDGER ALIGNMENT</text><text x="592" y="28" class="label inverse">BLACK / WHITE</text><g class="mark" transform="translate(40 55) scale(5.5)"><path fill="currentColor" d="M3 4h4v4h8v3H7v3h8v3H7v3H3zM9 6h6v3h4v3h-4v3h4v3h-4v3H9v-3h6v-3H9v-3h6V9H9zM18 3h3v18h-3z"/></g><g class="inverse" transform="translate(610 55) scale(5.5)"><path fill="currentColor" d="M3 4h4v4h8v3H7v3h8v3H7v3H3zM9 6h6v3h4v3h-4v3h4v3h-4v3H9v-3h6v-3H9v-3h6V9H9zM18 3h3v18h-3z"/></g><text x="250" y="130" class="label">F</text><text x="250" y="155" class="small">mark + Settle</text></g>
</svg>